<?xml version="1.0" encoding="utf-8"?>
<svg xmlns="http://www.w3.org/2000/svg" viewBox="0 0 320 35">
  <g transform="matrix(1, 0, 0, 1, -0.020038, -27.714672)">
    <path d="M 106.793 50.996 C 106.342 50.568 105.635 50.568 105.183 50.996 C 103.781 52.267 101.956 52.971 100.063 52.971 C 96.679 52.971 93.647 50.756 93.647 45.762 C 93.647 40.768 96.49 38.541 99.572 38.541 C 102.877 38.538 105.515 41.291 105.372 44.593 L 97.472 44.593 C 96.777 44.593 96.214 45.156 96.214 45.85 L 96.214 47.02 L 106.818 47.02 C 107.719 47.028 108.445 46.285 108.416 45.385 C 108.228 39.535 104.529 35.824 99.61 35.824 C 94.365 35.824 90.477 40.089 90.477 45.762 C 90.233 51.174 94.558 55.693 99.975 55.688 C 103.052 55.72 105.979 54.361 107.938 51.989 L 106.793 50.996 Z" style=""/>
    <path d="M 139.888 37.401 C 142.074 36.315 144.479 35.742 146.921 35.727 C 152.166 35.727 155.06 38.445 155.06 43.439 L 155.06 55.101 L 153.273 55.101 C 152.578 55.101 152.015 54.537 152.015 53.842 L 152.015 52.584 C 150.363 54.496 147.937 55.558 145.41 55.478 C 141.964 55.478 138.252 53.566 138.252 49.439 C 138.252 45.313 141.334 43.149 146.455 43.149 L 149.663 43.149 L 149.663 44.332 C 149.663 45.027 149.101 45.59 148.405 45.59 L 146.744 45.59 C 143.41 45.59 141.436 46.999 141.436 49.364 C 141.436 51.73 143.788 52.937 146.002 52.937 C 149.461 52.937 152.116 50.836 152.116 48.068 L 152.116 43.564 C 152.116 40.357 150.204 38.633 146.681 38.633 C 145.095 38.652 143.526 38.964 142.052 39.551 C 141.422 39.82 140.7 39.47 140.517 38.81 L 139.888 37.401 Z" style=""/>
    <path d="M 66.449 32.629 L 64.599 32.629 C 63.905 32.629 63.341 32.066 63.341 31.371 L 63.341 29.534 L 65.191 29.534 C 65.886 29.534 66.449 30.097 66.449 30.792 L 66.449 32.629 Z" style=""/>
    <path d="M 240.382 32.629 L 238.533 32.629 C 237.837 32.629 237.274 32.066 237.274 31.371 L 237.274 29.534 L 239.123 29.534 C 239.819 29.534 240.382 30.097 240.382 30.792 L 240.382 32.629 Z" style=""/>
    <path d="M 45.729 39.284 C 43.792 37.018 40.949 35.728 37.968 35.761 C 30.298 35.761 25.504 44.064 29.339 50.706 C 31.119 53.789 34.408 55.688 37.968 55.688 C 41.031 55.679 43.927 54.293 45.855 51.914 L 44.686 50.807 C 44.211 50.39 43.499 50.39 43.025 50.807 C 41.71 52.112 39.945 52.864 38.093 52.908 C 34.245 52.82 31.215 49.597 31.363 45.75 C 31.171 41.946 34.159 38.735 37.968 38.654 C 39.804 38.687 41.553 39.442 42.836 40.755 C 43.315 41.201 44.064 41.173 44.509 40.693 L 45.729 39.284 Z" style=""/>
    <path d="M 79.482 55.324 C 80.293 55.306 81.018 54.813 81.332 54.066 L 89.093 36.239 L 87.432 36.239 C 86.414 36.23 85.49 36.836 85.093 37.774 L 79.583 51.059 L 74.035 37.799 C 73.637 36.861 72.713 36.255 71.695 36.264 L 69.971 36.264 L 77.67 54.091 C 77.986 54.816 78.691 55.296 79.482 55.324 Z" style=""/>
    <path d="M 58.8 51.989 C 57.898 52.435 56.912 52.688 55.907 52.732 C 54.169 52.998 52.672 51.501 52.938 49.763 L 52.938 39.032 L 58.863 39.032 L 58.863 37.497 C 58.863 36.802 58.3 36.239 57.606 36.239 L 52.938 36.239 L 52.938 30.767 C 52.938 30.072 52.375 29.509 51.679 29.509 L 49.855 29.509 L 49.855 50.266 C 49.799 53.215 52.153 55.647 55.102 55.688 C 56.414 55.731 57.715 55.433 58.876 54.82 L 58.8 51.989 Z" style=""/>
    <path d="M 64.599 55.324 L 66.449 55.324 L 66.449 37.497 C 66.449 36.802 65.886 36.239 65.191 36.239 L 63.367 36.239 L 63.367 54.091 C 63.319 54.79 63.9 55.371 64.599 55.324 Z" style=""/>
    <path d="M 135.463 33.422 C 132.834 30.691 129.19 29.173 125.4 29.232 C 118.043 29.135 112.096 35.202 112.342 42.554 C 112.091 49.835 117.951 55.861 125.235 55.814 C 129.186 55.855 132.962 54.185 135.59 51.234 L 134.332 49.977 C 133.857 49.56 133.146 49.56 132.671 49.977 C 130.703 51.887 128.067 52.951 125.324 52.945 C 119.902 52.945 115.713 48.379 115.713 42.58 C 115.713 36.78 119.839 32.339 125.324 32.339 C 127.964 32.39 130.5 33.376 132.482 35.119 C 132.991 35.51 133.711 35.456 134.155 34.994 L 135.463 33.422 Z" style=""/>
    <path d="M 181.381 35.824 C 178.704 35.765 176.195 37.129 174.789 39.409 C 173.638 37.142 171.28 35.744 168.738 35.824 C 166.372 35.791 164.156 36.98 162.875 38.969 L 162.875 37.497 C 162.875 36.802 162.312 36.239 161.618 36.239 L 159.768 36.239 L 159.768 55.324 L 161.618 55.324 C 162.312 55.324 162.875 54.76 162.875 54.066 L 162.875 44.466 C 162.875 41.133 164.977 38.731 167.908 38.731 C 170.839 38.731 172.575 40.768 172.575 44.153 L 172.575 54.091 C 172.575 54.785 173.138 55.349 173.833 55.349 L 175.682 55.349 L 175.682 44.341 C 175.682 40.453 178.199 38.731 180.714 38.731 C 183.683 38.731 185.407 40.705 185.407 44.215 L 185.407 54.091 C 185.407 54.785 185.97 55.349 186.664 55.349 L 188.514 55.349 L 188.514 43.535 C 188.451 38.793 185.733 35.824 181.381 35.824 Z" style=""/>
    <path d="M 203.685 35.824 C 200.854 35.811 198.207 37.231 196.654 39.598 L 196.654 37.497 C 196.654 36.802 196.09 36.239 195.395 36.239 L 193.546 36.239 L 193.546 59.94 C 193.546 60.635 194.109 61.199 194.804 61.199 L 196.654 61.199 L 196.654 52.052 C 198.253 54.351 200.885 55.712 203.685 55.688 C 208.126 55.688 212.819 52.179 212.819 45.762 C 212.819 39.347 208.063 35.824 203.685 35.824 Z M 209.611 45.762 C 209.611 49.952 206.957 52.858 203.195 52.858 C 199.39 52.77 196.405 49.564 196.591 45.762 C 196.398 41.956 199.385 38.742 203.195 38.654 C 206.893 38.654 209.611 41.686 209.611 45.762 Z" style=""/>
    <path d="M 238.47 55.324 L 240.319 55.324 L 240.319 37.497 C 240.319 36.802 239.756 36.239 239.061 36.239 L 237.237 36.239 L 237.237 54.091 C 237.25 54.765 237.794 55.31 238.47 55.324 Z" style=""/>
    <path d="M 245.439 58.469 C 248.033 60.24 251.104 61.184 254.245 61.173 C 260.422 61.173 263.932 57.789 263.932 51.864 L 263.932 36.264 L 262.083 36.264 C 261.388 36.264 260.825 36.827 260.825 37.523 L 260.825 39.284 C 256.553 33.822 247.971 35.03 245.376 41.461 C 242.996 47.356 247.309 53.795 253.667 53.839 C 256.503 53.867 259.174 52.51 260.825 50.203 L 260.825 51.927 C 260.825 56.065 258.421 58.405 254.17 58.405 C 251.948 58.404 249.77 57.786 247.88 56.619 C 247.312 56.225 246.526 56.427 246.219 57.046 L 245.439 58.469 Z M 260.8 44.831 C 260.725 48.443 257.691 51.285 254.082 51.121 C 250.563 51.232 247.68 48.35 247.792 44.831 C 247.707 41.343 250.596 38.513 254.082 38.667 C 257.653 38.475 260.684 41.256 260.8 44.831 Z" style=""/>
    <path d="M 278.311 35.824 C 275.786 35.737 273.4 36.978 272.021 39.095 L 272.021 37.497 C 272.021 36.802 271.457 36.239 270.763 36.239 L 268.914 36.239 L 268.914 55.324 L 270.763 55.324 C 271.457 55.324 272.021 54.76 272.021 54.066 L 272.021 44.378 C 271.813 41.258 274.329 38.631 277.456 38.704 C 280.601 38.704 282.487 40.743 282.487 44.19 L 282.487 54.066 C 282.487 54.76 283.05 55.324 283.746 55.324 L 285.595 55.324 L 285.595 43.473 C 285.658 38.856 282.815 35.824 278.311 35.824 Z" style=""/>
    <path d="M 315.447 45.322 L 299.471 55.94 C 298.782 56.411 298.372 57.194 298.376 58.028 L 298.376 60.682 L 317.737 47.976 C 318.613 47.374 319.143 46.385 319.159 45.322 C 319.167 44.257 318.631 43.261 317.737 42.68 L 298.376 30.087 L 298.376 32.604 C 298.374 33.441 298.79 34.223 299.483 34.692 L 315.447 45.322 Z" style=""/>
    <path d="M 305.824 46.203 C 306.691 46.756 307.799 46.756 308.666 46.203 L 310.025 45.284 L 299.899 38.428 C 299.274 38.002 298.424 38.411 298.366 39.165 C 298.364 39.188 298.363 39.211 298.363 39.234 L 298.363 41.271 L 303.609 44.781 L 305.824 46.203 Z" style=""/>
    <path d="M 217.26 37.623 C 219.445 36.538 221.851 35.965 224.292 35.95 C 229.525 35.95 232.431 38.667 232.431 43.662 L 232.431 55.324 L 230.644 55.324 C 229.95 55.324 229.387 54.76 229.387 54.066 L 229.387 52.807 C 227.733 54.717 225.307 55.78 222.782 55.7 C 219.322 55.7 215.624 53.788 215.624 49.662 C 215.624 45.536 218.706 43.372 223.826 43.372 L 227.034 43.372 L 227.034 44.555 C 227.034 45.249 226.471 45.812 225.777 45.812 L 224.153 45.812 C 220.82 45.812 218.845 47.221 218.845 49.587 C 218.845 51.952 221.184 53.16 223.411 53.16 C 226.871 53.16 229.513 51.059 229.513 48.291 L 229.513 43.788 C 229.513 40.58 227.601 38.856 224.091 38.856 C 222.504 38.876 220.935 39.187 219.462 39.774 C 218.814 40.093 218.038 39.732 217.863 39.032 L 217.26 37.623 Z" style=""/>
    <path d="M 25.388 55.324 L 27.174 55.324 L 16.116 30.83 C 15.792 29.98 14.931 29.46 14.028 29.572 C 13.132 29.435 12.269 29.968 11.99 30.83 L 0.881 55.324 L 2.555 55.324 C 3.55 55.301 4.451 54.73 4.894 53.839 L 7.234 48.719 L 16.04 48.719 C 16.736 48.719 17.299 48.156 17.299 47.461 L 17.299 45.762 L 8.492 45.762 L 14.066 33.422 L 23.086 53.751 C 23.466 54.691 24.374 55.312 25.388 55.324 Z" style=""/>
  </g>
</svg>