<svg xmlns="http://www.w3.org/2000/svg" xmlns:xlink="http://www.w3.org/1999/xlink" preserveAspectRatio="xMaxYMid meet" viewBox="0 0 321.07 141.42"> 	<path d="M453.938 144.105c0 11.504-9.043 20.84-20.278 20.84h-32.066c6.992-6.23 9.082-11.25 9.082-21.093V3.75h43.262v67.758h49.257V3.75h43.145v160.727h-43.145V98.832h-49.257v45.273" transform="matrix(.13333 0 0 -.13333 0 141.407)"></path> 	<path d="M88.223 68.852H51.414l18.164 55.019zm22.05-65.102h45.872S105.41 146.391 105.41 146.449c-5.715 15.996-18.008 18.496-21.941 18.496H39.172c6.758-5.547 9.156-9.14 9.156-14.746 0-3.379-.797-5.996-4.469-16.914L0 3.75h29.95l13.265 40.18h53.437l13.621-40.18" transform="matrix(.13333 0 0 -.13333 0 141.407)"></path> 	<path d="M296.16 26.57v51.422c0 9.863-2.066 14.863-9.058 21.113l33.066-.02c10.176 0 18.945-8.28 18.945-18.75V7.353C322.98 2.622 306.613 0 291.652 0c-57.297 0-93.691 33.422-93.691 82.856 0 48.242 36.465 85.878 94.488 85.878 13.207 0 25.688-2.265 37.016-6.406v-32.265c-10.156 6.738-23.012 10.742-37.016 10.742-27.832 0-49.746-19.18-49.746-54.61 0-37.574 16.606-60.566 43.242-60.566 3.325 0 6.625.23 10.215.941" transform="matrix(.13333 0 0 -.13333 0 141.407)"></path> 	<path d="M389.563 272.387c35.859 24.648 67.167 62.715 67.207 143.32V899.32h35.781V415.707c0-89.551-44.785-125.371-102.988-143.32" transform="matrix(.13333 0 0 -.13333 0 141.407)"></path> 	<path d="M418.699 272.387c33.578 15.683 91.781 44.804 91.781 143.32V899.32h35.86V415.707c0-120.918-94.063-138.809-127.641-143.32" transform="matrix(.13333 0 0 -.13333 0 141.407)"></path> 	<path d="M367.156 272.387c26.742 26.914 35.84 80.605 35.84 152.265V899.32h35.844V415.707c0-80.371-26.856-120.918-71.684-143.32" transform="matrix(.13333 0 0 -.13333 0 141.407)"></path> 	<path d="M192.551 1060.55c35.828-24.65 67.187-62.714 67.187-143.3V361.996h35.86V917.25c0 89.57-44.778 125.37-103.047 143.3" transform="matrix(.13333 0 0 -.13333 0 141.407)"></path> 	<path d="M221.68 1060.55c33.625-15.68 91.789-44.8 91.789-143.3V361.996h35.801V917.25c0 120.9-93.965 138.83-127.59 143.3" transform="matrix(.13333 0 0 -.13333 0 141.407)"></path> 	<path d="M170.129 1060.55c26.777-26.87 35.84-80.605 35.84-152.245V361.996h35.879V917.25c0 80.352-26.899 120.9-71.719 143.3" transform="matrix(.13333 0 0 -.13333 0 141.407)"></path> 	<path d="M165.676 272.387c-35.781 24.648-67.149 62.715-67.149 143.32V899.32h-35.8V415.707c0-89.551 44.785-125.371 102.949-143.32" transform="matrix(.13333 0 0 -.13333 0 141.407)"></path> 	<path d="M136.531 272.387c-33.551 15.683-91.734 44.804-91.734 143.32V899.32H8.945V415.707c0-120.918 94.035-138.809 127.586-143.32" transform="matrix(.13333 0 0 -.13333 0 141.407)"></path> 	<path d="M188.035 272.387c-26.695 26.914-35.777 80.605-35.777 152.265V899.32h-35.82V415.707c0-80.371 26.875-120.918 71.597-143.32" transform="matrix(.13333 0 0 -.13333 0 141.407)"></path> 	<path d="M843.5 823.195c-.922 4.602-1.879 9.348-2.875 14.262-1 4.898-1.918 9.5-2.758 13.797a829.405 829.405 0 0 0-2.07 10.809c-.543 2.91-.887 4.679-1.035 5.292-1.074-5.214-2.301-11.582-3.684-19.089-1.383-7.52-3.07-15.871-5.058-25.071l-8.508-40.019h34.496zm20.469-96.14-6.668 31.281h-45.082l-6.672-31.281h-34.039l43.242 160.996h40.02l43.238-160.996h-34.039" transform="matrix(.13333 0 0 -.13333 0 141.407)"></path> 	<path d="M1024.51 733.031c-3.07-.918-6.67-1.836-10.81-2.754-4.14-.918-8.59-1.808-13.34-2.644a216.434 216.434 0 0 0-14.719-2.074c-5.067-.536-9.973-.809-14.723-.809-7.359 0-14.723.809-22.078 2.422-7.36 1.609-13.957 5.176-19.781 10.691-5.832 5.52-10.543 13.606-14.149 24.27-3.601 10.652-5.402 25.027-5.402 43.125 0 11.953.996 22.383 2.992 31.277 1.988 8.891 4.711 16.477 8.164 22.766 3.449 6.289 7.477 11.465 12.074 15.527 4.602 4.063 9.504 7.246 14.719 9.551 5.215 2.297 10.578 3.867 16.102 4.707 5.519.84 10.957 1.269 16.328 1.269 8.742 0 16.289-.917 22.653-2.761 6.36-1.836 11.39-3.684 15.07-5.52v-25.761c-1.99.613-4.45 1.414-7.36 2.421a95.117 95.117 0 0 1-9.43 2.637c-3.379.77-6.867 1.453-10.468 2.07-3.606.614-7.094.926-10.465.926-4.141 0-8.434-.691-12.879-2.066-4.449-1.391-8.551-4.145-12.305-8.285-3.762-4.137-6.867-9.93-9.316-17.364-2.453-7.437-3.676-17.136-3.676-29.101 0-12.723.957-22.852 2.875-30.36 1.914-7.511 4.285-13.261 7.129-17.246 2.832-3.996 5.937-6.554 9.312-7.707 3.371-1.148 6.516-1.726 9.434-1.726 1.684 0 3.562.078 5.633.234 2.07.145 4.14.344 6.211.574 2.07.227 3.984.461 5.746.688 1.765.23 3.183.496 4.258.808v48.528h-21.848l-2.301 24.605h56.35v-92.918" transform="matrix(.13333 0 0 -.13333 0 141.407)"></path> 	<path d="M1138.36 727.055v74.062h-46v-74.062h-32.2v160.996h32.2v-62.102h46v62.102h32.2V727.055h-32.2" transform="matrix(.13333 0 0 -.13333 0 141.407)"></path> 	<path d="M1380.09 776.73c0-8.281-.92-15.632-2.77-22.078-1.83-6.433-4.82-11.886-8.96-16.328-4.14-4.453-9.54-7.82-16.21-10.117-6.67-2.305-14.85-3.457-24.5-3.457-10.12 0-18.56 1.125-25.3 3.34-6.75 2.215-12.12 5.515-16.1 9.89-3.99 4.368-6.83 9.805-8.51 16.329-1.69 6.515-2.53 13.996-2.53 22.421v111.321h32.2V777.648c0-9.96 1.5-16.98 4.48-21.043 2.99-4.062 8.25-6.093 15.76-6.093 6.9 0 12 1.992 15.29 5.988 3.3 3.98 4.95 11.031 4.95 21.148v110.403h32.2V776.73" transform="matrix(.13333 0 0 -.13333 0 141.407)"></path> 	<path d="m1494.62 727.055-32.42 58.875c-3.54 6.593-6.6 12.843-9.2 18.75-2.62 5.902-4.76 10.617-6.45 14.14.46-3.98 1.19-9.734 2.19-17.246 1-7.519 1.49-16.324 1.49-26.453v-48.066h-32.19v128.797h33.11l29.9-53.125c4.29-7.516 7.63-14.11 10-19.786 2.39-5.671 4.57-10.808 6.57-15.41-.46 4.446-1.19 10.617-2.19 18.52-1 7.898-1.49 16.289-1.49 25.183v44.618h32.19V727.055h-31.51" transform="matrix(.13333 0 0 -.13333 0 141.407)"></path> 	<path d="M1567.54 727.055v128.797h32.66V727.055h-32.66" transform="matrix(.13333 0 0 -.13333 0 141.407)"></path> 	<path d="M1700.48 727.055h-44.16l-38.87 128.797h35.66l17.94-76.356c.91-3.84 1.75-7.742 2.52-11.73.77-3.993 1.5-7.703 2.18-11.161.7-3.449 1.27-6.433 1.73-8.964.46-2.532.76-4.102.92-4.715 0 .457.23 1.914.69 4.375a782.96 782.96 0 0 0 1.73 8.844c.68 3.457 1.46 7.207 2.3 11.273.84 4.059 1.72 8.086 2.64 12.078l17.94 76.356h35.66l-38.88-128.797" transform="matrix(.13333 0 0 -.13333 0 141.407)"></path> 	<path d="M1844 830.094h-56.34v-24.836h48.3v-23.692h-48.3v-28.75h57.5v-25.761h-89.7v128.797h90.85l-2.31-25.758" transform="matrix(.13333 0 0 -.13333 0 141.407)"></path> 	<path d="M1945.21 816.293c0 5.832-2.23 9.812-6.67 11.965-4.46 2.144-11.81 3.219-22.08 3.219h-10.36v-34.278c6.44 0 12.11.235 17.03.696 4.9.457 9 1.375 12.3 2.761 3.29 1.379 5.75 3.293 7.36 5.742 1.6 2.454 2.42 5.754 2.42 9.895zm-2.07-89.238-7.83 27.371c-1.07 3.683-2.03 6.703-2.87 9.082-.85 2.375-1.69 4.367-2.53 5.976-.85 1.614-1.73 2.95-2.64 4.036a61.627 61.627 0 0 0-2.77 3.449l-18.4-1.156v-48.758h-32.19v128.797h44.16c8.58 0 16.51-.457 23.8-1.375 7.28-.918 13.57-2.762 18.86-5.516 5.29-2.766 9.39-6.645 12.31-11.621 2.91-4.985 4.36-11.465 4.36-19.438 0-5.828-.61-10.691-1.83-14.605-1.23-3.91-3-7.168-5.3-9.77-2.3-2.617-5.05-4.714-8.28-6.328-3.22-1.609-6.75-3.023-10.57-4.258 5.82-2.449 10.65-8.738 14.48-18.855l13.81-37.031h-36.57" transform="matrix(.13333 0 0 -.13333 0 141.407)"></path> 	<path d="M2085.51 766.156c0-9.511-1.65-17.023-4.94-22.539-3.3-5.527-7.52-9.656-12.66-12.422-5.14-2.765-10.81-4.519-17.01-5.293-6.21-.761-12.16-1.152-17.83-1.152-5.68 0-11.73.547-18.17 1.609-6.44 1.075-13.11 2.688-20.01 4.836v26.446a198.556 198.556 0 0 1 20.12-5.286c6.67-1.386 11.92-2.07 15.76-2.07 7.05 0 12.57.883 16.55 2.649 4 1.757 5.99 5.402 5.99 10.918 0 4.453-1.53 7.664-4.6 9.668-3.07 1.984-6.82 3.828-11.27 5.515l-11.73 4.602c-3.68 1.375-7.32 3.066-10.92 5.058-3.61 1.993-6.79 4.364-9.56 7.129-2.75 2.766-5.01 6.055-6.77 9.895-1.77 3.828-2.65 8.426-2.65 13.797 0 8.281 1.49 14.953 4.48 20.007 2.99 5.063 6.91 8.965 11.73 11.731 4.84 2.762 10.2 4.598 16.11 5.516 5.89.929 11.84 1.386 17.82 1.386 6.75 0 13.11-.574 19.09-1.726 5.98-1.153 11.27-2.801 15.87-4.942V826.41c-5.83 2.149-11.61 3.875-17.36 5.176-5.76 1.309-10.85 1.965-15.3 1.965-6.9 0-12.08-.852-15.53-2.531-3.44-1.688-5.17-4.688-5.17-8.973 0-4.145 1.61-7.207 4.83-9.203 3.22-1.992 7.28-3.906 12.19-5.75l11.27-4.367a93.709 93.709 0 0 0 10.93-4.95c3.59-1.914 6.78-4.25 9.54-7.011 2.76-2.762 4.98-6.133 6.67-10.118 1.69-3.996 2.53-8.816 2.53-14.492" transform="matrix(.13333 0 0 -.13333 0 141.407)"></path> 	<path d="M2116.56 727.055v128.797h32.66V727.055h-32.66" transform="matrix(.13333 0 0 -.13333 0 141.407)"></path> 	<path d="M2278.95 829.406h-35.42V727.055h-32.21v102.351h-39.09v26.446h110.39l-3.67-26.446" transform="matrix(.13333 0 0 -.13333 0 141.407)"></path> 	<path d="M2363.12 776.051v-48.996h-32.2v48.996l-44.86 79.801h36.58l24.38-54.735 24.38 54.735h36.57l-44.85-79.801" transform="matrix(.13333 0 0 -.13333 0 141.407)"></path> 	<path d="M865.813 515.465c0 8.125-.579 15.015-1.731 20.691-1.148 5.672-2.797 10.235-4.941 13.692-2.153 3.449-4.793 5.937-7.934 7.468-3.144 1.536-6.715 2.309-10.699 2.309-3.988 0-7.555-.773-10.692-2.309-3.144-1.531-5.793-4.058-7.937-7.586-2.149-3.535-3.793-8.093-4.945-13.691-1.149-5.598-1.723-12.449-1.723-20.574 0-15.5 2.184-26.613 6.551-33.352 4.371-6.758 10.617-10.129 18.746-10.129 8.125 0 14.375 3.301 18.746 9.895 4.367 6.59 6.559 17.781 6.559 33.586zm32.195 0c0-14.414-1.84-25.996-5.52-34.738-3.679-8.743-8.355-15.489-14.031-20.235-5.676-4.758-11.887-7.898-18.629-9.433-6.746-1.536-13.187-2.305-19.32-2.305-6.289 0-12.805.769-19.551 2.305-6.746 1.535-12.961 4.675-18.629 9.433-5.672 4.746-10.312 11.492-13.914 20.235-3.605 8.742-5.406 20.324-5.406 34.738 0 14.402 1.84 25.984 5.523 34.723 3.676 8.742 8.317 15.488 13.91 20.238 5.594 4.754 11.77 7.898 18.516 9.429 6.746 1.536 13.262 2.305 19.551 2.305 6.133 0 12.574-.769 19.32-2.305 6.742-1.531 12.953-4.675 18.629-9.429 5.676-4.75 10.352-11.496 14.031-20.238 3.68-8.739 5.52-20.321 5.52-34.723" transform="matrix(.13333 0 0 -.13333 0 141.407)"></path> 	<path d="M1015.77 553.41h-54.508v-26.453h48.298v-23.691h-48.298v-52.207h-32.203v128.796h89.701l-2.99-26.445" transform="matrix(.13333 0 0 -.13333 0 141.407)"></path> 	<path d="m1185.51 448.754-40.02 89.707 37.03 73.594h36.34l-41.4-72.215 43.7-88.781zm-74.75 2.305v160.996h32.2V451.059h-32.2" transform="matrix(.13333 0 0 -.13333 0 141.407)"></path> 	<path d="M1314.31 540.297c0 5.832-2.23 9.812-6.67 11.965-4.46 2.144-11.81 3.218-22.08 3.218h-10.35v-34.277c6.44 0 12.1.235 17.02.695 4.9.457 9 1.375 12.3 2.762 3.29 1.379 5.75 3.293 7.36 5.742 1.61 2.453 2.42 5.754 2.42 9.895zm-2.07-89.238-7.83 27.371c-1.07 3.683-2.03 6.703-2.87 9.082-.85 2.375-1.69 4.367-2.53 5.976-.85 1.614-1.72 2.95-2.64 4.035a63.406 63.406 0 0 0-2.77 3.446l-18.39-1.153v-48.757H1243v128.796h44.16c8.59 0 16.52-.457 23.81-1.375 7.28-.917 13.57-2.761 18.86-5.515 5.29-2.766 9.39-6.645 12.31-11.621 2.91-4.985 4.36-11.465 4.36-19.438 0-5.828-.61-10.691-1.83-14.605-1.23-3.91-3-7.168-5.29-9.77-2.31-2.613-5.06-4.715-8.29-6.328-3.22-1.609-6.74-3.027-10.57-4.258 5.82-2.449 10.65-8.738 14.48-18.855l13.81-37.031h-36.57" transform="matrix(.13333 0 0 -.13333 0 141.407)"></path> 	<path d="M1432.29 531.098c-2.61 9.199-4.53 16.289-5.76 21.281-1.22 4.976-2.21 8.844-2.98 11.609-.92-3.523-2.18-8.281-3.79-14.258-1.62-5.988-3.27-12.187-4.96-18.632l-8.5-30.821h34.5zm20.46-80.039-7.35 25.527h-43.7l-7.36-25.527h-34.04l42.55 128.796h41.4l42.55-128.796h-34.05" transform="matrix(.13333 0 0 -.13333 0 141.407)"></path> 	<path d="m1584.54 448.754-40.02 70.156 36.34 60.945h37.03l-40.94-59.792 43.25-69.004zm-74.74 2.305v128.796h32.19V451.059h-32.19" transform="matrix(.13333 0 0 -.13333 0 141.407)"></path> 	<path d="M1711.05 515.465c0 8.125-.58 15.015-1.72 20.691-1.16 5.672-2.81 10.235-4.95 13.692-2.15 3.449-4.8 5.937-7.93 7.468-3.15 1.536-6.71 2.309-10.7 2.309-3.99 0-7.56-.773-10.7-2.309-3.15-1.531-5.78-4.058-7.93-7.586-2.15-3.535-3.8-8.093-4.94-13.691-1.15-5.598-1.73-12.449-1.73-20.574 0-15.5 2.19-26.613 6.55-33.352 4.38-6.758 10.62-10.129 18.75-10.129s14.38 3.301 18.74 9.895c4.38 6.59 6.56 17.781 6.56 33.586zm32.2 0c0-14.414-1.84-25.996-5.53-34.738-3.67-8.743-8.35-15.489-14.02-20.235-5.67-4.758-11.88-7.898-18.63-9.433-6.75-1.536-13.19-2.305-19.32-2.305-6.29 0-12.81.769-19.55 2.305-6.75 1.535-12.96 4.675-18.63 9.433-5.68 4.746-10.31 11.492-13.92 20.235-3.6 8.742-5.4 20.324-5.4 34.738 0 14.402 1.84 25.984 5.52 34.723 3.68 8.742 8.31 15.488 13.92 20.238 5.59 4.754 11.76 7.898 18.51 9.429 6.74 1.536 13.26 2.305 19.55 2.305 6.13 0 12.57-.769 19.32-2.305 6.75-1.531 12.96-4.675 18.63-9.429 5.67-4.75 10.35-11.496 14.02-20.238 3.69-8.739 5.53-20.321 5.53-34.723" transform="matrix(.13333 0 0 -.13333 0 141.407)"></path> 	<path d="M1915.52 451.059h-43.7l-12.65 62.097c-.77 3.828-1.69 8.547-2.76 14.145-1.08 5.594-2.15 11.121-3.22 16.558-1.07 5.442-2 10.278-2.76 14.493-.77 4.218-1.23 6.789-1.38 7.707-.15-.918-.61-3.45-1.38-7.59-.77-4.141-1.65-8.934-2.65-14.375-1-5.449-2.03-11.004-3.11-16.676-1.07-5.676-1.99-10.434-2.75-14.262l-12.88-62.097h-43.7l-26.68 128.796h36.34l7.36-64.39c.46-4.914.96-10.09 1.49-15.531.54-5.45 1.04-10.547 1.5-15.293.46-4.754.84-8.817 1.15-12.196.3-2.453.54-4.14.69-5.058l.69 4.832c.61 3.222 1.3 7.168 2.07 11.847.77 4.668 1.69 9.805 2.76 15.411a860.532 860.532 0 0 0 3.21 15.988l13.35 64.39h45.08l13.8-64.39c.92-4.297 1.88-9.133 2.87-14.496 1-5.371 1.92-10.465 2.77-15.293.84-4.832 1.53-9.012 2.07-12.539.53-3.524.87-5.672 1.03-6.434.76 7.195 1.57 14.942 2.41 23.223.84 8.281 1.73 16.797 2.65 25.539l6.67 64.39h36.34l-26.68-128.796" transform="matrix(.13333 0 0 -.13333 0 141.407)"></path> </svg>