<svg xmlns="http://www.w3.org/2000/svg" xml:space="preserve" style="fill-rule:evenodd;clip-rule:evenodd;stroke-linejoin:round;stroke-miterlimit:2" viewBox="4.8 708.2 2155.2 1016.33">   <path d="M1751.6 909.3c-41.4 17.8-98.3 87.2-109 207.6l-1.2 12.2-.4 5c-.5 2.5-1.2 6.8-2.8 19.2a791.7 791.7 0 0 1-21.8 117.2c-8.2 28-15.7 40-19.7 44.8-6.4-7.4-20.8-32-34-110.5-11.2-66.8-17.9-148.4-24.4-227.3-5.2-63.7-10.1-123.9-17-168.5-6-38.9-15.2-97.6-60.6-97.6-44.7 0-78.9 6.3-107.5 20-19.3 9.4 4.7 52 33.1 53.3 16.4-7.8 33.5-10.5 60.5-11.5 11.6 32.2 19.9 133.4 26 209 7 83.8 14.7 178.6 28.5 251 7.7 41 16.8 71.9 27.6 94.2 16.6 34.3 39.5 51.7 67.9 51.7 51.6 0 71.6-58 78.1-77.1 11.3-33 20.6-79.2 28.5-141.4 1.4-11 2-14.1 2-14.9.7-2.6.7-3.4 1.5-11.5l1-12.2c8-89.5 42.7-105.5 61-110 30.6-9.4 8.5-117.1-17.3-102.7" style="fill-rule:nonzero"></path>   <path d="M1394.8 896.7c-4.2-87.3-72.4-180.1-190.7-180.1-87.2 0-112.2 108.2-120.5 143.7-16.7 72.6-23.1 167-28.8 250.4-3.6 53.1-7 103.3-12.6 142.8a518 518 0 0 1-4.2 25.4c-1.6-9-3.3-20-5-32.8-5.8-44-10.5-99-15.4-157.2-7.1-84.2-14.5-171.2-26.6-239.2-12.7-71.8-31.8-138.3-85-138.3-24.6 0-57.6 11.4-75.2 66-9.4 29.3-13.6 66.7-17.6 103-3.8 33.7-7.7 68.6-15.5 92.6-5 15.2-10.6 23-13.6 23-3.4 0-9.6-8.4-15-24.6-8.2-25-12.5-60.8-16.6-95.4-4.2-35.3-8.6-71.7-17.5-100-9.3-29.5-29.4-64.6-72-64.6-25.3 0-45.3 16.7-59.2 49.8-8.4 20-15.8 47.9-22.4 85-11.9 66-19.8 151.4-27.4 234-5.6 60-10.8 116.9-17.2 162.5l-.8 5.5a3701 3701 0 0 1-13.3-140c-6.9-83.7-14.7-178.5-28.4-250.9-7.8-41-16.8-71.9-27.6-94.2-16.7-34.3-39.5-51.7-67.9-51.7-28.4 0-51.2 17.4-67.8 51.7-10.8 22.3-19.9 53.2-27.7 94.2-13.7 72.4-21.5 167.2-28.3 251-6.1 74.3-14.3 173.2-25.5 207.2-30.7-8.7-67.5-43.4-82.4-61.3v-.2c-171.4-198.7-72-401.3-19.8-481.6 0 0-7.9-22.7-26.8-37.2-18.8-14.6-29.3 5.1-29.3 5.1C63.8 782.5 18.8 864 7.6 964.1a399.3 399.3 0 0 0 36.2 219.1c16.4 44 65.1 101.4 71.6 109 8.4 10 74.7 87 147.4 87 45.4 0 54.5-58.8 60.5-97.7 7-44.6 11.9-104.8 17.1-168.5 6.5-78.9 13.2-160.5 24.4-227.3 13.3-78.9 27.7-103.3 34-110.6 6.3 7.3 20.8 31.7 34 110.6 11.3 66.8 18 148.4 24.4 227.3 5.3 63.7 10.2 123.9 17.1 168.5 6 38.9 15.2 97.6 60.6 97.6 22 0 38.5-14.4 48.8-42.9a369 369 0 0 0 15-64.2c8-50.1 14.2-116.4 20.7-186.5 6.7-72.5 13.7-147.4 23.2-208 9.2-58.5 18.2-85.5 24-97.8 2.4 4.8 5.5 12.7 8.6 25.3 5.4 22 8.6 49.1 12 77.9 4.5 37.4 9.2 76.1 19.2 106.6 10.3 31.1 32 68.1 77.7 68.1 25 0 58.5-11.5 76.4-66.6 9.6-29.7 13.9-67.6 18-104.3 3.2-29.3 6.6-59.7 12.6-82.6a82.9 82.9 0 0 1 11.3-28c5.8 10 16.8 36.4 27.3 104.4 9.6 62.3 16.1 139 22.4 213.3 5.8 68.2 11.3 132.6 18.8 181 4.2 27.2 8.8 47.6 14 62.2 10.2 28 26.4 42.1 48.4 42.1 53.4 0 65.5-67.5 70.6-96.3 8-44.8 12.1-104.7 16.4-168.2 5.5-81.2 11.8-173.2 27.5-241.2 8.2-35.6 26.5-95.2 56.3-95.2a123 123 0 0 1 65.4 17.5c15.8-16.9 21.8-20.8 33.6-18.2 37.1 23.8 41.7 31.1 10.2 65.2 9.3 17.4 15 37 15.9 56.8 3 63.7-37.8 90-77 93.2l-2.3.3c-11.1 1.7-32.5 2.3-35.1-1-.2-.2-7.7-30.7 85.6-135.8l12.9-13.5a124 124 0 0 0-19.3-27 117 117 0 0 0-24.5-20c-5.3 5.5-11.6 12.5-19.6 21-86.7 97.9-113.7 160.6-87.6 203.4 25.2 41.3 85.2 35.4 96.9 33.8 44.7-4 81.2-22.8 105.6-54.6 21.1-27.6 31.8-64 30-102.6" style="fill-rule:nonzero"></path>   <path d="M1873.4 1362s-14.2-2.7-38.7-16.7c-24.4-14-5.1-29.2-5.1-29.2l16.4-13.8c21.5-20.5 48.6-53 57.5-93.3 10-45.7-5.5-93.4-46.1-141.7-51.5-61-72-123.6-60.9-185.8 18.6-104.6 120.5-167.3 124.9-170 17.4-12 28.5 9.6 35.6 51.8-.8.5-82.3 51.1-95.8 128.7-7.7 44.3 8.3 90.4 47.7 137.1 89.7 106.6 83.6 222.2-16.9 317.2l-1.4 1.2-17.2 14.5Z" style="fill-rule:nonzero"></path>   <path d="M1669.8 1721.7h-46.6c-5.2 0-9.5-1.2-13-3.6a18.8 18.8 0 0 1-7-9.4l-15.2-45.2h-98.6l-15.4 45.2a20 20 0 0 1-6.9 9 20 20 0 0 1-12.6 4h-47l100.4-259.3h61.5l100.4 259.3Zm-166.6-99.1h70.9l-23.9-71-5.4-16c-2-6-4.1-12.7-6.1-19.8a353.4 353.4 0 0 1-11.6 36.1l-23.9 70.7Z" style="fill-rule:nonzero"></path>   <path d="M1802.3 1678.3a102.3 102.3 0 0 0 40.2-7.8V1631h-25.7c-3.8 0-6.7-1-8.9-3a10 10 0 0 1-3.2-7.7v-33h92.2v109.4a135.9 135.9 0 0 1-69.6 26.2c-9.2 1-19.1 1.6-29.7 1.6a136 136 0 0 1-52.7-10 128 128 0 0 1-41.9-27.9 127.8 127.8 0 0 1-27.7-42 136.3 136.3 0 0 1-10.1-52.7c0-19.4 3.2-37.1 9.6-53.3a120 120 0 0 1 70.8-69.4c16.9-6.5 35.8-9.8 56.6-9.8a165.1 165.1 0 0 1 56.7 10 120.8 120.8 0 0 1 39.8 25l-17.4 26.5a19.4 19.4 0 0 1-6 5.8 14.2 14.2 0 0 1-7.6 2.2c-3.5 0-7.2-1.2-11-3.6-4.7-2.8-9.2-5.3-13.4-7.4a82 82 0 0 0-26.8-8c-4.9-.5-10.3-.8-16.4-.8-11.3 0-21.4 2-30.4 6s-16.7 9.5-23 16.8a76 76 0 0 0-14.8 26 105.1 105.1 0 0 0-5.1 34c0 13.7 1.9 26 5.7 36.6 3.8 10.7 9 19.7 15.7 27 6.7 7.4 14.7 13 23.9 17a77.2 77.2 0 0 0 30.1 5.7Z" style="fill-rule:nonzero"></path>   <path d="M2160 1721.7h-60.5v-109.6H1994v109.6h-60.5v-259.3h60.5v108.4h105.4v-108.4h60.5v259.3Z" style="fill-rule:nonzero"></path> </svg>