<svg xmlns="http://www.w3.org/2000/svg" xml:space="preserve" style="fill-rule:evenodd;clip-rule:evenodd;stroke-linejoin:round;stroke-miterlimit:2" viewBox="83.28 331.02 3341.63 1818.3">   <path d="M.06-.75h.258V0H.06v-.75Zm.578 0h.258V0H.638v-.75Zm-.432.253h.533v.228H.206v-.228Z" style="fill-rule:nonzero" transform="matrix(689.1784 0 0 607.7832 705.596 1145.687)"></path>   <path d="M.238-.126v-.205h.511v.205H.238ZM.67-.75.999 0H.724L.465-.636h.066L.272 0h-.275l.329-.75H.67Z" style="fill-rule:nonzero" transform="matrix(689.1784 0 0 607.7832 1354.113 1145.687)"></path>   <path d="M.922-.325a.367.367 0 0 1-.225.3.527.527 0 0 1-.22.043.523.523 0 0 1-.234-.049.38.38 0 0 1-.156-.138.386.386 0 0 1-.055-.206.39.39 0 0 1 .055-.207.379.379 0 0 1 .156-.137.523.523 0 0 1 .234-.049c.083 0 .156.014.22.043a.367.367 0 0 1 .225.3H.663A.156.156 0 0 0 .63-.492a.162.162 0 0 0-.062-.042.276.276 0 0 0-.19.006.149.149 0 0 0-.064.06.183.183 0 0 0-.022.093c0 .036.007.067.022.093a.153.153 0 0 0 .064.059c.027.014.06.021.099.021a.252.252 0 0 0 .091-.014.14.14 0 0 0 .095-.109h.259Z" style="fill-rule:nonzero" transform="matrix(689.1784 0 0 607.7832 2004.691 1145.687)"></path>   <path d="M.06 0v-.75h.256v.549L.251-.256.624-.75h.27l-.6.75H.06Zm.36-.345.19-.149L.904 0H.612L.42-.345Z" style="fill-rule:nonzero" transform="matrix(689.1784 0 0 607.7832 2648.384 1145.687)"></path>   <path d="M.238-.126v-.205h.511v.205H.238ZM.67-.75.999 0H.724L.465-.636h.066L.272 0h-.275l.329-.75H.67Z" style="fill-rule:nonzero" transform="matrix(689.1784 0 0 607.7832 428.755 1790.487)"></path>   <path d="M.84-.324a.45.45 0 0 1-.027.127.356.356 0 0 1-.069.111.33.33 0 0 1-.116.076.517.517 0 0 1-.33.003.405.405 0 0 1-.137-.075.354.354 0 0 1-.128-.293c0-.065.011-.122.034-.171a.348.348 0 0 1 .095-.123.432.432 0 0 1 .141-.074.565.565 0 0 1 .173-.025c.087 0 .161.013.223.038a.35.35 0 0 1 .223.261H.663a.097.097 0 0 0-.036-.048.19.19 0 0 0-.064-.03.32.32 0 0 0-.185.009.138.138 0 0 0-.064.06.21.21 0 0 0-.023.103.2.2 0 0 0 .026.106.149.149 0 0 0 .073.062.384.384 0 0 0 .224.005.175.175 0 0 0 .08-.045.136.136 0 0 0 .037-.077H.84Zm-.322.069v-.146h.41V0H.749L.711-.287l.045.032H.518Z" style="fill-rule:nonzero" transform="matrix(689.1784 0 0 607.7832 1079.334 1790.487)"></path>   <path d="M.06-.75h.258V0H.06v-.75Zm.578 0h.258V0H.638v-.75Zm-.432.253h.533v.228H.206v-.228Z" style="fill-rule:nonzero" transform="matrix(689.1784 0 0 607.7832 1741.634 1790.487)"></path>   <path d="M.031-.511v-.105l.56.206v.108l-.56.206v-.105l.478-.171v.032L.031-.511Z" style="fill-rule:nonzero" transform="matrix(725.44571 0 0 1549.99722 2989.639 2278.482)"></path>   <path d="M.031-.511v-.105l.56.206v.108l-.56.206v-.105l.478-.171v.032L.031-.511Z" style="fill-rule:nonzero" transform="matrix(-688.67742 0 0 -1549.99427 496.506 201.854)"></path>   <path d="M.294-.777h.152l-.28.804H.014l.28-.804Z" style="fill-rule:nonzero" transform="matrix(765.59494 0 0 1002.4816 2599.543 2102.628)"></path> </svg>