<svg xmlns="http://www.w3.org/2000/svg" preserveAspectRatio="xMaxYMid meet" viewBox="0 0 491.31 125.95"><g data-name="Layer 2"><g data-name="Layer 1"><path d="M7.15 30.81a1.75 1.75 0 0 0 1.17 1.6l52.68 17a5 5 0 0 1 3.28 4.34V67.9A18.18 18.18 0 0 1 45.9 85.82H0v-3.65a1.29 1.29 0 0 1 1.29-1.26H45.9a12.13 12.13 0 0 0 12.29-12V55.12a1.84 1.84 0 0 0-1.29-1.6l-52.69-17a4.85 4.85 0 0 1-3.15-4.34v-14A18.11 18.11 0 0 1 19.44.23H61.7v3.65a1.28 1.28 0 0 1-1.29 1.26h-41a12.13 12.13 0 0 0-12.29 12ZM144.64 43v42.82h-4.1a1.29 1.29 0 0 1-1.29-1.25v-42a9.15 9.15 0 0 0-9.13-9.13h-18.5a3.44 3.44 0 0 1 1.87 3.19v49.19h-4a1.29 1.29 0 0 1-1.29-1.25V35.49a2.07 2.07 0 0 0-2.11-2.05H83.76a1.29 1.29 0 0 0-1.29 1.25v49.88a1.28 1.28 0 0 1-1.29 1.25h-4v-52a5.23 5.23 0 0 1 5.15-5.13h47.77A14.52 14.52 0 0 1 144.64 43M194.2 80.8V55.58a1.42 1.42 0 0 1-.93.45H168.8a9.18 9.18 0 0 0-9.25 9.13v6.62a9.08 9.08 0 0 0 9.25 9Zm5.27-37.8v41.57a1.28 1.28 0 0 1-1.28 1.25H168.8a14.36 14.36 0 0 1-14.52-14.27v-5.93a14.38 14.38 0 0 1 14.52-14.38h24.12A1.27 1.27 0 0 0 194.2 50v-7.43a9.17 9.17 0 0 0-9.2-9.13h-24.52a1.27 1.27 0 0 1-1.17-1.26v-3.53H185A14.45 14.45 0 0 1 199.47 43M217.91 28.76v3.76s2.35-3.76 10.31-3.76h13.35v3.54a1.2 1.2 0 0 1-1.29 1.14h-14.4c-8.2 0-8 8.21-8 8.21v44.17h-5.26V28.76ZM276.3 82.28v3.54h-11.59a14.38 14.38 0 0 1-14.52-14.38V0h4a1.28 1.28 0 0 1 1.29 1.26V31c.12-1.25 1.64-2.17 3.28-2.17H273v3.47a1.28 1.28 0 0 1-1.28 1.25h-16.26V72a9.16 9.16 0 0 0 9.25 9h10.42a1.26 1.26 0 0 1 1.17 1.25M316.54 77.6v8.22h-11.83a16.9 16.9 0 0 1-17.09-16.66v-68h8.9a1.29 1.29 0 0 1 1.29 1.26v28.51a3.64 3.64 0 0 1 3.39-2.06h12.42v8.22a1.2 1.2 0 0 1-1.3 1.14h-14.51v31.38a6.76 6.76 0 0 0 6.9 6.74h10.54a1.29 1.29 0 0 1 1.29 1.25M342 38.12c-3.86 0-6.9 2.16-6.9 6.73V51a1.25 1.25 0 0 0 1.17 1.25h27.28a1.29 1.29 0 0 0 1.31-1.25v-6.15c0-4.57-2.23-6.73-6.79-6.73Zm-17.08 31V45c0-10.61 7.6-16.2 17.08-16.2h15.69c9.49 0 17.1 5.59 17.1 16.2v13.09c0 1.94-.24 3.53-3 3.53h-32.11a5.65 5.65 0 0 1-4.56-2.16v10.15a6.76 6.76 0 0 0 6.9 6.74h29a1.28 1.28 0 0 1 1.29 1.25v8.22H342a16.82 16.82 0 0 1-17.08-16.66M399.68 45.08v24.53a6.77 6.77 0 0 0 6.91 6.74h20.73a1.29 1.29 0 0 1 1.29 1.25v8.22h-22a16.9 16.9 0 0 1-17.11-16.66V45.54a16.91 16.91 0 0 1 17.09-16.67h22v8.22a1.2 1.2 0 0 1-1.29 1.14h-20.71a6.86 6.86 0 0 0-6.91 6.85M442 .23h8.9a1.28 1.28 0 0 1 1.29 1.25v30.93a9.92 9.92 0 0 1 8-3.65H475c9.36 0 16.27 5.25 16.27 16v41.06h-8.9a1.29 1.29 0 0 1-1.29-1.26V45a6.76 6.76 0 0 0-6.91-6.73h-16.35a6.3 6.3 0 0 0-5.62 5.82v41.73h-8.9a1.29 1.29 0 0 1-1.3-1.26ZM8 113.89l-8-12.64h5.33l4.94 8.38 5-8.38h5.18l-8 12.55v8.33H8ZM33.39 122.49a11.33 11.33 0 0 1-4.41-.85 11.17 11.17 0 0 1-3.48-2.3 10.27 10.27 0 0 1-2.28-3.4 10.82 10.82 0 0 1-.81-4.19v-.06a10.62 10.62 0 0 1 .82-4.19 10.93 10.93 0 0 1 2.3-3.44 10.82 10.82 0 0 1 3.47-2.32 11.92 11.92 0 0 1 8.84 0 11 11 0 0 1 3.49 2.26 10.21 10.21 0 0 1 2.28 3.41 10.65 10.65 0 0 1 .82 4.19v.06a10.66 10.66 0 0 1-.83 4.19 10.62 10.62 0 0 1-5.79 5.76 11.41 11.41 0 0 1-4.42.88Zm.06-4.24a6.16 6.16 0 0 0 2.51-.51 5.7 5.7 0 0 0 2-1.4 6.64 6.64 0 0 0 1.27-2.07 6.83 6.83 0 0 0 .46-2.52v-.06a6.94 6.94 0 0 0-.46-2.54 6.35 6.35 0 0 0-1.3-2.09 6.2 6.2 0 0 0-2-1.41 6 6 0 0 0-2.51-.53 6.12 6.12 0 0 0-2.53.51 6 6 0 0 0-2 1.4 6.84 6.84 0 0 0-1.73 4.6v.06a6.89 6.89 0 0 0 .46 2.53 6.26 6.26 0 0 0 3.29 3.51 5.93 5.93 0 0 0 2.54.52ZM57.13 122.46a9.05 9.05 0 0 1-6.58-2.33q-2.38-2.32-2.39-6.95v-11.93h4.56v11.81a5.54 5.54 0 0 0 1.18 3.86 4.2 4.2 0 0 0 3.28 1.3 4.32 4.32 0 0 0 3.29-1.22 5.3 5.3 0 0 0 1.18-3.76v-12h4.56V113a12.36 12.36 0 0 1-.63 4.15 8 8 0 0 1-1.82 2.93 7.3 7.3 0 0 1-2.88 1.76 11.35 11.35 0 0 1-3.75.62ZM70.86 101.25h9.47a8.13 8.13 0 0 1 6 2.11 6.52 6.52 0 0 1 1.78 4.78v.06a6.59 6.59 0 0 1-1.23 4.13 7.18 7.18 0 0 1-3.21 2.34l5.06 7.46h-5.29L79 115.45h-3.58v6.68h-4.56ZM80 111.39a3.74 3.74 0 0 0 2.59-.81 2.7 2.7 0 0 0 .91-2.14v-.06a2.68 2.68 0 0 0-1-2.24 4.14 4.14 0 0 0-2.63-.75h-4.45v6ZM100.1 118.49l6.9-5.68c.65-.54 1.2-1 1.66-1.45a9.22 9.22 0 0 0 1.11-1.22 4.55 4.55 0 0 0 .62-1.13 3.61 3.61 0 0 0 .19-1.21 2.58 2.58 0 0 0-.77-2 2.89 2.89 0 0 0-2-.69 3.52 3.52 0 0 0-2.15.69 12 12 0 0 0-2.08 2.12l-3.2-2.6a17.74 17.74 0 0 1 1.55-1.86 9.4 9.4 0 0 1 1.69-1.37 7.29 7.29 0 0 1 2-.84 9.9 9.9 0 0 1 2.48-.28 8.73 8.73 0 0 1 2.92.46 6.55 6.55 0 0 1 2.25 1.3 5.75 5.75 0 0 1 1.45 2 6.66 6.66 0 0 1 .52 2.65v.06a7.59 7.59 0 0 1-.34 2.34 6.78 6.78 0 0 1-1 1.94 10.92 10.92 0 0 1-1.7 1.82q-1 .92-2.4 2l-3.37 2.63h9v4H100.1ZM128.87 117.62h-10.12l-.74-3.25 11.37-13.27h3.84v12.79H136v3.73h-2.79v4.51h-4.35Zm0-3.73v-6.5l-5.5 6.5ZM149.77 98.32h3.82L140.48 126h-3.82ZM164.92 105.21h-9.73v-4h14.91v3.46l-9.29 17.42h-5.15ZM190.26 122.43a13.81 13.81 0 0 1-4.65-.82 12.2 12.2 0 0 1-4.14-2.53l2.69-3.25a13.08 13.08 0 0 0 2.92 1.85 7.66 7.66 0 0 0 3.27.69 4 4 0 0 0 2.2-.52 1.64 1.64 0 0 0 .79-1.45v-.06a1.8 1.8 0 0 0-.17-.79 1.56 1.56 0 0 0-.62-.64 6.63 6.63 0 0 0-1.27-.6 20.34 20.34 0 0 0-2.13-.62 25.54 25.54 0 0 1-2.85-.87 7.91 7.91 0 0 1-2.16-1.18 4.61 4.61 0 0 1-1.38-1.74 6.06 6.06 0 0 1-.49-2.6v-.06a5.86 5.86 0 0 1 2-4.56 6.48 6.48 0 0 1 2.29-1.28 9 9 0 0 1 2.92-.45 11.86 11.86 0 0 1 7.7 2.65l-2.37 3.46a14.9 14.9 0 0 0-2.73-1.5 6.83 6.83 0 0 0-2.66-.56 3.2 3.2 0 0 0-2 .53 1.58 1.58 0 0 0-.66 1.29v.06a1.84 1.84 0 0 0 .19.88 1.76 1.76 0 0 0 .7.68 6.83 6.83 0 0 0 1.35.56c.58.18 1.32.39 2.21.63a20.81 20.81 0 0 1 2.8.94 7.76 7.76 0 0 1 2.08 1.25 4.88 4.88 0 0 1 1.28 1.72 5.94 5.94 0 0 1 .43 2.35v.11a6.51 6.51 0 0 1-.56 2.76 5.59 5.59 0 0 1-1.56 2 6.8 6.8 0 0 1-2.39 1.25 10.21 10.21 0 0 1-3.03.42ZM201.8 101.25h15.6v4.08h-11.1v4.24h9.77v4.09h-9.77V118h11.25v4.09H201.8ZM231.34 122.49a10.58 10.58 0 0 1-4.23-.84 10.45 10.45 0 0 1-3.37-2.28 10.31 10.31 0 0 1-2.22-3.42 10.9 10.9 0 0 1-.8-4.2v-.06a10.94 10.94 0 0 1 3-7.63 10.32 10.32 0 0 1 3.4-2.32 10.93 10.93 0 0 1 4.38-.85 13.52 13.52 0 0 1 2.65.24 11.15 11.15 0 0 1 2.18.65 9.31 9.31 0 0 1 1.8 1 11.34 11.34 0 0 1 1.54 1.31l-2.9 3.37a10.89 10.89 0 0 0-2.47-1.73 6.23 6.23 0 0 0-2.83-.63 5.69 5.69 0 0 0-2.41.51 5.8 5.8 0 0 0-1.91 1.4 6.5 6.5 0 0 0-1.24 2.08 7 7 0 0 0-.45 2.52v.06a7.09 7.09 0 0 0 .45 2.53 6.42 6.42 0 0 0 1.23 2.09 5.64 5.64 0 0 0 4.33 1.94 6.29 6.29 0 0 0 3-.66 11.5 11.5 0 0 0 2.44-1.79l2.9 3a16 16 0 0 1-1.66 1.55 9.77 9.77 0 0 1-1.88 1.18 10.07 10.07 0 0 1-2.23.74 13.32 13.32 0 0 1-2.7.24ZM252.12 122.46a9 9 0 0 1-6.57-2.33q-2.4-2.32-2.4-6.95v-11.93h4.56v11.81a5.54 5.54 0 0 0 1.19 3.86 4.18 4.18 0 0 0 3.28 1.3 4.33 4.33 0 0 0 3.29-1.25 5.3 5.3 0 0 0 1.18-3.76v-12h4.56V113a12.1 12.1 0 0 1-.64 4.15 7.72 7.72 0 0 1-1.82 2.93 7.26 7.26 0 0 1-2.87 1.76 11.41 11.41 0 0 1-3.76.62ZM265.86 101.25h9.47a8.16 8.16 0 0 1 6 2.11 6.52 6.52 0 0 1 1.77 4.78v.06a6.59 6.59 0 0 1-1.23 4.13 7.18 7.18 0 0 1-3.21 2.34l5.06 7.46h-5.32l-4.4-6.68h-3.59v6.68h-4.55Zm9.14 10.14a3.74 3.74 0 0 0 2.59-.81 2.72 2.72 0 0 0 .9-2.14v-.06a2.68 2.68 0 0 0-.94-2.24 4.15 4.15 0 0 0-2.64-.75h-4.53v6ZM287.46 101.25H292v20.88h-4.56ZM302 105.48h-6.3v-4.23h17.17v4.23h-6.31v16.65H302ZM322.21 113.89l-8-12.64h5.33l4.94 8.38 5-8.38h5.18l-8 12.55v8.33h-4.56ZM346.45 101.25h8.47a9.86 9.86 0 0 1 3.33.52 7.19 7.19 0 0 1 2.48 1.47 6.42 6.42 0 0 1 1.57 2.29 7.51 7.51 0 0 1 .55 2.94 7.46 7.46 0 0 1-.65 3.2 6.41 6.41 0 0 1-1.79 2.29 7.72 7.72 0 0 1-2.67 1.39 11.09 11.09 0 0 1-3.27.46H351v6.27h-4.56Zm8.17 10.53a3.74 3.74 0 0 0 2.67-.91 3 3 0 0 0 .94-2.26v-.06a2.86 2.86 0 0 0-1-2.35 4.15 4.15 0 0 0-2.71-.81H351v6.39ZM373.33 101.1h4.2l8.88 21h-4.76l-1.9-4.69H371l-1.89 4.69h-4.65Zm4.79 12.29-2.75-6.77-2.75 6.77ZM389.61 101.25h9.47a8.15 8.15 0 0 1 6 2.11 6.52 6.52 0 0 1 1.77 4.78v.06a6.64 6.64 0 0 1-1.22 4.13 7.15 7.15 0 0 1-3.22 2.34l5.07 7.46h-5.33l-4.44-6.68h-3.58v6.68h-4.56Zm9.17 10.14a3.74 3.74 0 0 0 2.59-.81 2.7 2.7 0 0 0 .91-2.14v-.06a2.68 2.68 0 0 0-.95-2.24 4.15 4.15 0 0 0-2.64-.75h-4.52v6ZM415.83 105.48h-6.3v-4.23h17.17v4.23h-6.31v16.65h-4.56ZM430.19 101.25h4.2l9.71 12.85v-12.85h4.5v20.88h-3.88l-10-13.28v13.28h-4.5ZM453.57 101.25h15.6v4.08h-11.1v4.24h9.77v4.09h-9.77V118h11.25v4.09h-15.75ZM473.4 101.25h9.47a8.13 8.13 0 0 1 6 2.11 6.48 6.48 0 0 1 1.78 4.78v.06a6.59 6.59 0 0 1-1.23 4.13 7.18 7.18 0 0 1-3.21 2.34l5.06 7.46H486l-4.44-6.68H478v6.68h-4.6Zm9.18 10.14a3.76 3.76 0 0 0 2.59-.81 2.72 2.72 0 0 0 .9-2.14v-.06a2.68 2.68 0 0 0-.95-2.24 4.14 4.14 0 0 0-2.63-.75H478v6Z"/></g></g></svg>