<svg xmlns="http://www.w3.org/2000/svg" xmlns:xlink="http://www.w3.org/1999/xlink" viewBox="-0.28 0 1214.1 484.98">   <g fill-rule="evenodd">     <path fill-rule="nonzero" d="M196 20c60-13 123 13 159 26 20 6 39 14 57 24l24 10c2 2 4 5 4 8l-3 35c-10 91-35 166-75 226-59 90-177 129-195 135-5 2-11 1-16-4-15-16-36-41-61-76 88-25 151-65 189-118 30-44 44-104 53-153a447 447 0 0 0-205-38c6-42 30-67 69-75ZM44 0l100 5c-32 88-46 156-43 205 5 72 36 116 93 133-70 35-117 42-142 20-37-33-50-98-52-140A562 562 0 0 1 37 5c1-3 4-4 7-5Z" mask="url(#b)"></path>     <path fill-rule="nonzero" d="M674 4v116a77 77 0 0 1-43 70c-13 7-28 10-43 10-16 0-31-3-44-10a75 75 0 0 1-43-70V4h53v112c0 10 3 18 8 25 6 6 14 9 26 9 11 0 19-3 25-9 5-7 8-15 8-25V4h53Zm130 1a90 90 0 0 1 53 16c7 6 13 13 18 21 4 8 6 18 6 29 0 15-4 26-12 36-8 9-18 15-31 19l53 70h-65l-51-76v76h-53V5h82Zm-29 50v36a78 78 0 0 0 22 4c9 0 16-2 21-5 6-4 9-9 9-16 0-8-3-13-9-15-5-3-12-4-21-4h-22ZM979 0c11 0 22 1 33 4s20 7 26 11v52l-24-13c-8-3-17-5-28-5-6 0-12 1-16 3-5 2-7 5-7 9 0 5 3 9 8 11l20 8 21 8c14 5 24 13 29 22a51 51 0 0 1-2 60c-7 9-16 16-28 22a100 100 0 0 1-74 2c-11-4-21-9-29-15v-52c9 7 19 13 29 17 11 5 21 7 32 7 7 0 12-1 16-3 4-1 6-4 6-8 0-3-1-5-4-7-3-3-8-4-13-6l-27-8c-10-4-18-9-24-14-6-6-10-13-13-20-2-8-3-15-3-23 0-13 3-25 10-34s16-16 27-21 23-7 35-7Zm164 0c11 0 22 1 33 4s20 7 26 11v52l-24-13c-8-3-17-5-28-5-6 0-12 1-16 3-5 2-7 5-7 9 0 5 3 9 8 11l20 8 21 8c14 5 24 13 29 22a51 51 0 0 1-2 60c-7 9-16 16-28 22a100 100 0 0 1-74 2c-11-4-21-9-29-15v-52c9 7 19 13 29 17 11 5 21 7 32 7 7 0 12-1 16-3 4-1 6-4 6-8 0-3-1-5-4-7-3-3-8-4-13-6l-27-8c-10-4-18-9-24-14-6-6-10-13-13-20-2-8-3-15-3-23 0-13 3-25 10-34s16-16 27-21 23-7 35-7ZM636 247l103 227h-72l-11-30h-71l-11 30h-73l103-227h32Zm-16 101-17 46h34l-17-46Zm283 6h53v90a110 110 0 0 1-82 35 126 126 0 0 1-81-31 91 91 0 0 1-27-37c-7-14-10-31-10-49s3-35 10-49c6-15 15-27 27-37a119 119 0 0 1 82-31c11 0 22 2 32 5s19 8 27 15v60c-9-7-18-12-26-16s-18-5-31-5a55 55 0 0 0-49 28 61 61 0 0 0 0 60c5 9 12 16 21 21s18 8 28 8a65 65 0 0 0 26-6v-61Zm167-104v89h81v-89h62v224h-62v-80h-81v80h-62V250z"></path>   </g> </svg>