<?xml version="1.0" encoding="UTF-8" standalone="no"?>
<!DOCTYPE svg PUBLIC "-//W3C//DTD SVG 1.1//EN" "http://www.w3.org/Graphics/SVG/1.1/DTD/svg11.dtd">
<svg preserveAspectRatio="xMaxYMid meet" width="100%" height="100%" viewBox="0 0 750 370" version="1.1" xmlns="http://www.w3.org/2000/svg" xmlns:xlink="http://www.w3.org/1999/xlink" xml:space="preserve" xmlns:serif="http://www.serif.com/" style="fill-rule:evenodd;clip-rule:evenodd;stroke-linejoin:round;stroke-miterlimit:2;">
	<g>
		<g>
			<circle cx="226.473" cy="55.324" r="54.411" />
			<circle cx="525.777" cy="55.324" r="54.411" />
			<circle cx="226.473" cy="191.598" r="54.411" />
			<circle cx="525.777" cy="191.598" r="54.411" />
			<path d="M315.127,69.831l0,-66.972c84.22,-8.756 137.141,52.921 137.141,120.602c-0,67.682 -52.921,127.412 -137.141,121.575l0,-67.409l23.741,-0c29.747,-0 53.898,-24.151 53.898,-53.898c-0,-29.747 -24.151,-53.898 -53.898,-53.898l-23.741,-0Z" />
		</g>
		<path d="M0.708,368.644l0,-3.77l35.918,-45.303l0.591,2.069l-35.991,0l-0,-4.73l41.017,0l-0,3.769l-35.844,45.304l-0.665,-2.069l37.396,-0l-0,4.73l-42.422,-0Z" style="fill-rule:nonzero;" />
		<path d="M86.808,368.644l-17.442,-51.734l5.617,0l16.333,48.703l-2.809,0l16.851,-48.703l5.025,0l16.629,48.703l-2.661,0l16.481,-48.703l5.247,0l-17.441,51.734l-5.765,-0l-15.889,-46.191l1.478,-0l-15.964,46.191l-5.69,-0Z" style="fill-rule:nonzero;" />
		<rect x="177.193" y="316.91" width="5.469" height="51.733" style="fill-rule:nonzero;" />
		<path d="M225.527,340.042l27.345,0l0,4.656l-27.345,0l0,-4.656Zm0.591,23.872l31.114,-0l0,4.73l-36.583,-0l0,-51.734l35.475,0l-0,4.73l-30.006,0l0,42.274Z" style="fill-rule:nonzero;" />
		<path d="M291.229,368.644l-0,-51.734l19.363,0c4.385,0 8.154,0.702 11.307,2.106c3.154,1.405 5.58,3.425 7.28,6.061c1.7,2.636 2.55,5.826 2.55,9.57c-0,3.646 -0.85,6.787 -2.55,9.423c-1.7,2.636 -4.126,4.656 -7.28,6.06c-3.153,1.405 -6.922,2.107 -11.307,2.107l-16.333,-0l2.439,-2.513l-0,18.92l-5.469,-0Zm35.326,-0l-13.303,-18.772l5.913,-0l13.377,18.772l-5.987,-0Zm-29.857,-18.477l-2.439,-2.586l16.185,-0c5.173,-0 9.103,-1.134 11.788,-3.4c2.685,-2.266 4.028,-5.444 4.028,-9.534c-0,-4.138 -1.343,-7.341 -4.028,-9.607c-2.685,-2.267 -6.615,-3.4 -11.788,-3.4l-16.185,0l2.439,-2.587l-0,31.114Z" style="fill-rule:nonzero;" />
		<path d="M388.266,369.087c-3.892,0 -7.489,-0.653 -10.79,-1.958c-3.301,-1.306 -6.159,-3.141 -8.573,-5.506c-2.414,-2.365 -4.299,-5.149 -5.654,-8.352c-1.355,-3.202 -2.032,-6.7 -2.032,-10.494c-0,-3.794 0.677,-7.292 2.032,-10.495c1.355,-3.202 3.252,-5.986 5.691,-8.351c2.439,-2.365 5.309,-4.2 8.61,-5.506c3.301,-1.306 6.898,-1.958 10.79,-1.958c3.744,-0 7.267,0.628 10.568,1.884c3.301,1.257 6.085,3.141 8.352,5.654l-3.474,3.474c-2.119,-2.168 -4.459,-3.733 -7.021,-4.693c-2.562,-0.961 -5.321,-1.442 -8.277,-1.442c-3.104,0 -5.987,0.53 -8.647,1.589c-2.661,1.06 -4.976,2.562 -6.947,4.509c-1.971,1.946 -3.511,4.212 -4.619,6.799c-1.109,2.586 -1.663,5.432 -1.663,8.536c-0,3.104 0.554,5.949 1.663,8.536c1.108,2.587 2.648,4.853 4.619,6.799c1.971,1.946 4.286,3.449 6.947,4.508c2.66,1.06 5.543,1.589 8.647,1.589c2.956,0 5.715,-0.492 8.277,-1.478c2.562,-0.985 4.902,-2.562 7.021,-4.73l3.474,3.474c-2.267,2.513 -5.051,4.409 -8.352,5.69c-3.301,1.282 -6.848,1.922 -10.642,1.922Z" style="fill-rule:nonzero;" />
		<rect x="440.073" y="316.91" width="5.469" height="51.733" style="fill-rule:nonzero;" />
		<path d="M475.252,368.644l23.65,-51.734l5.395,0l23.649,51.734l-5.764,-0l-21.728,-48.556l2.217,0l-21.728,48.556l-5.691,-0Zm9.312,-13.821l1.626,-4.434l30.079,0l1.626,4.434l-33.331,0Z" style="fill-rule:nonzero;" />
		<path d="M557.656,368.644l0,-51.734l21.063,0c5.518,0 10.359,1.096 14.522,3.289c4.164,2.192 7.403,5.235 9.719,9.127c2.316,3.892 3.473,8.376 3.473,13.451c0,5.075 -1.157,9.558 -3.473,13.451c-2.316,3.892 -5.555,6.934 -9.719,9.127c-4.163,2.192 -9.004,3.289 -14.522,3.289l-21.063,-0Zm5.469,-4.73l15.298,-0c4.583,-0 8.561,-0.9 11.936,-2.698c3.375,-1.798 5.999,-4.286 7.871,-7.464c1.872,-3.178 2.808,-6.836 2.808,-10.975c0,-4.188 -0.936,-7.859 -2.808,-11.012c-1.872,-3.153 -4.496,-5.629 -7.871,-7.427c-3.375,-1.799 -7.353,-2.698 -11.936,-2.698l-15.298,0l0,42.274Z" style="fill-rule:nonzero;" />
		<path d="M640.208,368.644l0,-51.734l5.469,0l0,47.004l28.971,-0l-0,4.73l-34.44,-0Zm-4.952,-19.142l-2.438,-3.104l21.58,-16.259l2.513,3.178l-21.655,16.185Z" style="fill-rule:nonzero;" />
		<path d="M696.598,368.644l23.649,-51.734l5.395,0l23.65,51.734l-5.765,-0l-21.728,-48.556l2.217,0l-21.728,48.556l-5.69,-0Zm9.312,-13.821l1.625,-4.434l30.08,0l1.626,4.434l-33.331,0Z" style="fill-rule:nonzero;" />
	</g>
</svg>
